<?xml version="1.0" encoding="UTF-8" standalone="no"?>
<svg
   xmlns:dc="http://purl.org/dc/elements/1.1/"
   xmlns:cc="http://creativecommons.org/ns#"
   xmlns:rdf="http://www.w3.org/1999/02/22-rdf-syntax-ns#"
   xmlns:svg="http://www.w3.org/2000/svg"
   xmlns="http://www.w3.org/2000/svg"
   xmlns:sodipodi="http://sodipodi.sourceforge.net/DTD/sodipodi-0.dtd"
   xmlns:inkscape="http://www.inkscape.org/namespaces/inkscape"
   viewBox="0 0 348 348"
   fill="none"
   version="1.1"
   id="svg56"
   sodipodi:docname="Forget's Ultimate Showdown.svg"
   inkscape:version="0.92.4 (5da689c313, 2019-01-14)">
  <metadata
     id="metadata62">
    <rdf:RDF>
      <cc:Work
         rdf:about="">
        <dc:format>image/svg+xml</dc:format>
        <dc:type
           rdf:resource="http://purl.org/dc/dcmitype/StillImage" />
      </cc:Work>
    </rdf:RDF>
  </metadata>
  <defs
     id="defs60" />
  <sodipodi:namedview
     pagecolor="#ffffff"
     bordercolor="#666666"
     borderopacity="1"
     objecttolerance="10"
     gridtolerance="10"
     guidetolerance="10"
     inkscape:pageopacity="0"
     inkscape:pageshadow="2"
     inkscape:window-width="1920"
     inkscape:window-height="1017"
     id="namedview58"
     showgrid="false"
     inkscape:zoom="1.9181287"
     inkscape:cx="72.276806"
     inkscape:cy="192.9016"
     inkscape:window-x="1912"
     inkscape:window-y="-8"
     inkscape:window-maximized="1"
     inkscape:current-layer="svg56" />
  <path
     d="M5.079 5.776h336.913v337.67H5.08z"
     stroke-width="2"
     stroke="#000"
     id="path2" />
  <path
     d="M282.734 40.554c0-8.376 6.966-15.165 15.56-15.165 4.126 0 8.084 1.597 11.001 4.441 2.918 2.844 4.558 6.702 4.558 10.724 0 8.376-6.966 15.165-15.56 15.165-8.593 0-15.559-6.79-15.559-15.165z"
     stroke-width="2"
     stroke="#000"
     id="path4" />
  <path
     d="M235.904 158.398h53.698v53.698h-53.698z"
     opacity=".99"
     fill="#999"
     stroke="#333"
     stroke-width="1.807"
     id="path6" />
  <path
     d="M25.904 246.338h297.164v69.86H25.904zm210-150.88h65.167v43.272h-65.167z"
     opacity=".99"
     fill="#000"
     stroke="#1a1a1a"
     stroke-width="1.807"
     id="path8" />
  <path
     d="M262.848 120.165h-22.85v-6.142h22.85zm34.129 0h-22.85v-6.142h22.85z"
     aria-label="--"
     font-weight="400"
     font-size="72.193"
     font-family="sans-serif"
     letter-spacing="0"
     word-spacing="0"
     fill="#f9f9f9"
     id="path10" />
  <path
     d="M16.138 23.247h213.23v200H16.137z"
     opacity=".99"
     fill="#1a1a1a"
     id="path12" />
  <path
     opacity=".99"
     fill="#999"
     stroke="#333"
     stroke-width="1.807"
     d="M25.904 34.398h53.698v53.698H25.904zm70 0h53.698v53.698H95.904zm70 0h53.698v53.698h-53.698zm-140 62h53.698v53.698H25.904zm70 0h53.698v53.698H95.904zm70 0h53.698v53.698h-53.698zm-140 62h53.698v53.698H25.904zm70 0h53.698v53.698H95.904zm70 0h53.698v53.698h-53.698z"
     id="path14" />
  <g
     aria-label="2"
     style="font-style:normal;font-variant:normal;font-weight:bold;font-stretch:normal;font-size:40px;line-height:1.25;font-family:sans-serif;-inkscape-font-specification:'sans-serif, Bold';font-variant-ligatures:normal;font-variant-caps:normal;font-variant-numeric:normal;font-feature-settings:normal;text-align:start;letter-spacing:0;word-spacing:0;writing-mode:lr-tb;text-anchor:start;fill:#000000"
     id="text18">
    <path
       d="m 136.20931,76.091003 h -22.83203 v -4.804687 q 2.61719,-1.894531 5.23438,-4.023438 2.63671,-2.128906 4.21875,-3.671875 2.36328,-2.285156 3.35937,-3.984375 0.99609,-1.699218 0.99609,-3.359375 0,-1.992187 -1.28906,-3.066406 -1.26953,-1.09375 -3.67187,-1.09375 -1.79688,0 -3.78907,0.742188 -1.97265,0.742187 -3.67187,1.894531 h -0.625 v -6.464844 q 1.38672,-0.605469 4.08203,-1.210937 2.71484,-0.605469 5.42969,-0.605469 5.46875,0 8.33984,2.304687 2.8711,2.285157 2.8711,6.484375 0,2.753907 -1.38672,5.234375 -1.36719,2.480469 -4.19922,5.117188 -1.77735,1.640625 -3.57422,3.027344 -1.79688,1.367187 -2.55859,1.914062 h 13.0664 z"
       style="font-style:normal;font-variant:normal;font-weight:bold;font-stretch:normal;font-size:40px;font-family:sans-serif;-inkscape-font-specification:'sans-serif, Bold';font-variant-ligatures:normal;font-variant-caps:normal;font-variant-numeric:normal;font-feature-settings:normal;text-align:start;writing-mode:lr-tb;text-anchor:start"
       id="path873" />
  </g>
  <g
     aria-label="3"
     style="font-style:normal;font-variant:normal;font-weight:bold;font-stretch:normal;font-size:40px;line-height:1.25;font-family:sans-serif;-inkscape-font-specification:'sans-serif, Bold';font-variant-ligatures:normal;font-variant-caps:normal;font-variant-numeric:normal;font-feature-settings:normal;text-align:start;letter-spacing:0;word-spacing:0;writing-mode:lr-tb;text-anchor:start;fill:#000000"
     id="text22">
    <path
       d="m 203.50475,62.15519 q 0.95703,0.820312 1.52343,1.914062 0.56641,1.09375 0.56641,2.910156 0,2.050782 -0.82031,3.828125 -0.80078,1.777344 -2.48047,3.046875 -1.64063,1.230469 -3.86719,1.894532 -2.20703,0.644531 -5.37109,0.644531 -3.61328,0 -6.21094,-0.566406 -2.57813,-0.566407 -4.19922,-1.269532 v -6.386718 h 0.76172 q 1.67969,1.015625 4.00391,1.757812 2.34375,0.742188 4.27734,0.742188 1.13281,0 2.46094,-0.175782 1.32812,-0.195312 2.24609,-0.820312 0.72266,-0.488281 1.15234,-1.171875 0.42969,-0.703125 0.42969,-2.011719 0,-1.269531 -0.58594,-1.953125 -0.58593,-0.703125 -1.54296,-0.996094 -0.95704,-0.3125 -2.30469,-0.332031 -1.34766,-0.03906 -2.5,-0.03906 h -1.60156 v -5.195313 h 1.66015 q 1.52344,0 2.69531,-0.09766 1.17188,-0.09766 1.99219,-0.449219 0.85938,-0.371094 1.28906,-0.976562 0.42969,-0.625 0.42969,-1.816407 0,-0.878906 -0.44922,-1.40625 -0.44922,-0.546875 -1.13281,-0.859375 -0.76172,-0.351562 -1.79687,-0.46875 -1.03516,-0.117187 -1.77735,-0.117187 -1.83594,0 -3.98437,0.644531 -2.14844,0.625 -4.16016,1.816406 h -0.72266 V 47.93644 q 1.60157,-0.644532 4.35547,-1.230469 2.75391,-0.605469 5.58594,-0.605469 2.75391,0 4.82422,0.488281 2.07031,0.46875 3.41797,1.269532 1.60156,0.957031 2.38281,2.324218 0.78125,1.367188 0.78125,3.203125 0,2.421875 -1.50391,4.335938 -1.5039,1.894531 -3.96484,2.421875 v 0.273437 q 0.99609,0.136719 2.10938,0.546875 1.11328,0.410157 2.03125,1.191407 z"
       style="font-style:normal;font-variant:normal;font-weight:bold;font-stretch:normal;font-size:40px;font-family:sans-serif;-inkscape-font-specification:'sans-serif, Bold';font-variant-ligatures:normal;font-variant-caps:normal;font-variant-numeric:normal;font-feature-settings:normal;text-align:start;writing-mode:lr-tb;text-anchor:start"
       id="path876" />
  </g>
  <g
     aria-label="4"
     style="font-style:normal;font-variant:normal;font-weight:bold;font-stretch:normal;font-size:40px;line-height:1.25;font-family:sans-serif;-inkscape-font-specification:'sans-serif, Bold';font-variant-ligatures:normal;font-variant-caps:normal;font-variant-numeric:normal;font-feature-settings:normal;text-align:start;letter-spacing:0;word-spacing:0;writing-mode:lr-tb;text-anchor:start;fill:#000000"
     id="text26">
    <path
       d="m 67.108467,131.08878 h -3.964844 v 6.77734 h -7.167968 v -6.77734 H 41.893623 v -5.50782 l 13.613282,-16.875 h 7.636718 v 17.07032 h 3.964844 z m -11.132812,-5.3125 v -10.50782 l -8.457032,10.50782 z"
       style="font-style:normal;font-variant:normal;font-weight:bold;font-stretch:normal;font-size:40px;font-family:sans-serif;-inkscape-font-specification:'sans-serif, Bold';font-variant-ligatures:normal;font-variant-caps:normal;font-variant-numeric:normal;font-feature-settings:normal;text-align:start;writing-mode:lr-tb;text-anchor:start"
       id="path879" />
  </g>
  <g
     aria-label="5"
     style="font-style:normal;font-variant:normal;font-weight:bold;font-stretch:normal;font-size:40px;line-height:1.25;font-family:sans-serif;-inkscape-font-specification:'sans-serif, Bold';font-variant-ligatures:normal;font-variant-caps:normal;font-variant-numeric:normal;font-feature-settings:normal;text-align:start;letter-spacing:0;word-spacing:0;writing-mode:lr-tb;text-anchor:start;fill:#000000"
     id="text30">
    <path
       d="m 135.44831,127.64224 q 0,2.26563 -0.85937,4.21875 -0.83985,1.9336 -2.46094,3.32031 -1.79688,1.48438 -4.14063,2.20704 -2.32422,0.70312 -5.3125,0.70312 -3.49609,-0.0195 -5.91797,-0.56641 -2.40234,-0.52734 -3.92578,-1.1914 v -6.42578 h 0.82032 q 1.77734,1.05468 3.82812,1.75781 2.05078,0.70312 4.08203,0.70312 1.23047,0 2.65625,-0.27343 1.44531,-0.29297 2.28516,-1.03516 0.66406,-0.60547 0.99609,-1.23047 0.35156,-0.625 0.35156,-1.93359 0,-1.01563 -0.46875,-1.73828 -0.44921,-0.74219 -1.17187,-1.19141 -1.05469,-0.64453 -2.53906,-0.83984 -1.48438,-0.21485 -2.69532,-0.21485 -1.75781,0 -3.3789,0.3125 -1.60156,0.29297 -2.8125,0.58594 h -0.85938 v -16.40625 h 20.6836 v 5.56641 h -13.63282 v 4.74609 q 0.60547,-0.0391 1.52344,-0.0586 0.9375,-0.0391 1.64063,-0.0391 2.40234,0 4.27734,0.46875 1.89453,0.44922 3.26172,1.26954 1.77734,1.07421 2.77344,2.85156 0.99609,1.75781 0.99609,4.43359 z"
       style="font-style:normal;font-variant:normal;font-weight:bold;font-stretch:normal;font-size:40px;font-family:sans-serif;-inkscape-font-specification:'sans-serif, Bold';font-variant-ligatures:normal;font-variant-caps:normal;font-variant-numeric:normal;font-feature-settings:normal;text-align:start;writing-mode:lr-tb;text-anchor:start"
       id="path882" />
  </g>
  <g
     aria-label="6"
     style="font-style:normal;font-variant:normal;font-weight:bold;font-stretch:normal;font-size:40px;line-height:1.25;font-family:sans-serif;-inkscape-font-specification:'sans-serif, Bold';font-variant-ligatures:normal;font-variant-caps:normal;font-variant-numeric:normal;font-feature-settings:normal;text-align:start;letter-spacing:0;word-spacing:0;writing-mode:lr-tb;text-anchor:start;fill:#000000"
     id="text34">
    <path
       d="m 206.19025,127.85666 q 0,2.24609 -0.82032,4.21875 -0.82031,1.97266 -2.30468,3.32031 -1.58203,1.44531 -3.67188,2.20703 -2.07031,0.76172 -4.86328,0.76172 -2.61719,0 -4.78516,-0.70312 -2.14843,-0.72266 -3.6914,-2.1875 -1.77735,-1.67969 -2.71485,-4.33594 -0.9375,-2.65625 -0.9375,-6.34766 0,-3.82812 0.87891,-6.79687 0.87891,-2.96875 2.87109,-5.25391 1.91407,-2.1875 4.96094,-3.39844 3.06641,-1.21093 7.28516,-1.21093 1.42578,0 3.125,0.19531 1.69922,0.19531 2.20703,0.29297 v 5.72265 h -0.74219 q -0.52734,-0.2539 -1.79687,-0.5664 -1.25,-0.33203 -2.85157,-0.33203 -3.75,0 -5.83984,1.83593 -2.08984,1.83594 -2.51953,5.11719 1.50391,-0.89844 3.16406,-1.44531 1.67969,-0.56641 3.61328,-0.56641 1.69922,0 3.14453,0.39063 1.46485,0.39062 2.71485,1.25 1.62109,1.13281 2.59765,3.04687 0.97657,1.91407 0.97657,4.78516 z m -8.88672,4.39453 q 0.60547,-0.66406 0.95703,-1.5625 0.37109,-0.91797 0.37109,-2.48047 0,-1.42578 -0.41015,-2.32422 -0.41016,-0.91797 -1.13282,-1.46484 -0.70312,-0.54688 -1.66015,-0.74219 -0.95703,-0.21484 -1.97266,-0.21484 -0.85937,0 -1.79687,0.19531 -0.9375,0.19531 -1.71875,0.48828 0,0.19531 -0.0195,0.64453 -0.0195,0.44922 -0.0195,1.13282 0,2.40234 0.46875,3.96484 0.48829,1.54297 1.28907,2.36328 0.54687,0.60547 1.28906,0.89844 0.74219,0.27344 1.60156,0.27344 0.64453,0 1.42578,-0.29297 0.78125,-0.29297 1.32813,-0.87891 z"
       style="font-style:normal;font-variant:normal;font-weight:bold;font-stretch:normal;font-size:40px;font-family:sans-serif;-inkscape-font-specification:'sans-serif, Bold';font-variant-ligatures:normal;font-variant-caps:normal;font-variant-numeric:normal;font-feature-settings:normal;text-align:start;writing-mode:lr-tb;text-anchor:start"
       id="path885" />
  </g>
  <g
     aria-label="7"
     style="font-style:normal;font-variant:normal;font-weight:bold;font-stretch:normal;font-size:40px;line-height:1.25;font-family:sans-serif;-inkscape-font-specification:'sans-serif, Bold';font-variant-ligatures:normal;font-variant-caps:normal;font-variant-numeric:normal;font-feature-settings:normal;text-align:start;letter-spacing:0;word-spacing:0;writing-mode:lr-tb;text-anchor:start;fill:#000000"
     id="text38">
    <path
       d="M 65.633842,176.48721 52.46978,199.78799 H 44.110405 L 57.78228,176.27237 H 42.840874 v -5.56641 h 22.792968 z"
       style="font-style:normal;font-variant:normal;font-weight:bold;font-stretch:normal;font-size:40px;font-family:sans-serif;-inkscape-font-specification:'sans-serif, Bold';font-variant-ligatures:normal;font-variant-caps:normal;font-variant-numeric:normal;font-feature-settings:normal;text-align:start;writing-mode:lr-tb;text-anchor:start"
       id="path888" />
  </g>
  <g
     aria-label="8"
     style="font-style:normal;font-variant:normal;font-weight:bold;font-stretch:normal;font-size:40px;line-height:1.25;font-family:sans-serif;-inkscape-font-specification:'sans-serif, Bold';font-variant-ligatures:normal;font-variant-caps:normal;font-variant-numeric:normal;font-feature-settings:normal;text-align:start;letter-spacing:0;word-spacing:0;writing-mode:lr-tb;text-anchor:start;fill:#000000"
     id="text42">
    <path
       d="m 136.54191,191.66299 q 0,3.86719 -3.30078,6.32813 -3.28125,2.46094 -9.02344,2.46094 -3.22266,0 -5.52734,-0.66407 -2.30469,-0.66406 -3.8086,-1.83593 -1.48437,-1.15235 -2.20703,-2.69532 -0.70312,-1.54296 -0.70312,-3.32031 0,-2.1875 1.26953,-3.86719 1.28906,-1.69921 4.43359,-2.96875 v -0.11718 q -2.53906,-1.17188 -3.73047,-2.94922 -1.1914,-1.77735 -1.1914,-4.1211 0,-3.45703 3.20312,-5.66406 3.20313,-2.20703 8.33984,-2.20703 5.39063,0 8.4375,2.01172 3.06641,1.99219 3.06641,5.33203 0,2.07031 -1.28906,3.69141 -1.28906,1.62109 -3.94531,2.7539 v 0.11719 q 3.04687,1.15234 4.51171,3.10547 1.46485,1.95312 1.46485,4.60937 z m -8.06641,-13.4375 q 0,-1.48437 -1.15234,-2.36328 -1.13281,-0.8789 -3.02735,-0.8789 -0.70312,0 -1.44531,0.17578 -0.72265,0.17578 -1.32812,0.50781 -0.56641,0.33203 -0.9375,0.87891 -0.3711,0.52734 -0.3711,1.21093 0,1.15235 0.64453,1.79688 0.66407,0.64453 2.14844,1.28906 0.54688,0.23438 1.48438,0.58594 0.95703,0.33203 2.30468,0.76172 0.89844,-1.05469 1.28907,-1.89453 0.39062,-0.83985 0.39062,-2.07032 z m 0.60547,13.76954 q 0,-1.40625 -0.70312,-2.12891 -0.70313,-0.72266 -2.89063,-1.66016 -0.64453,-0.29297 -1.875,-0.72265 -1.23047,-0.42969 -2.07031,-0.74219 -0.83985,0.76172 -1.52344,1.85547 -0.66406,1.07422 -0.66406,2.42187 0,2.03125 1.44531,3.24219 1.46484,1.19141 3.80859,1.19141 0.625,0 1.46485,-0.17578 0.83984,-0.19532 1.44531,-0.58594 0.70313,-0.44922 1.13281,-1.05469 0.42969,-0.60547 0.42969,-1.64062 z"
       style="font-style:normal;font-variant:normal;font-weight:bold;font-stretch:normal;font-size:40px;font-family:sans-serif;-inkscape-font-specification:'sans-serif, Bold';font-variant-ligatures:normal;font-variant-caps:normal;font-variant-numeric:normal;font-feature-settings:normal;text-align:start;writing-mode:lr-tb;text-anchor:start"
       id="path891" />
  </g>
  <g
     aria-label="9"
     style="font-style:normal;font-variant:normal;font-weight:bold;font-stretch:normal;font-size:40px;line-height:1.25;font-family:sans-serif;-inkscape-font-specification:'sans-serif, Bold';font-variant-ligatures:normal;font-variant-caps:normal;font-variant-numeric:normal;font-feature-settings:normal;text-align:start;letter-spacing:0;word-spacing:0;writing-mode:lr-tb;text-anchor:start;fill:#000000"
     id="text46">
    <path
       d="m 206.07332,183.62613 q 0,3.65234 -0.9375,6.79687 -0.9375,3.14454 -2.85156,5.29297 -2.07032,2.32422 -5.13672,3.4961 -3.06641,1.15234 -7.14844,1.15234 -1.44531,0 -3.125,-0.17578 -1.67969,-0.17578 -2.20703,-0.3125 v -5.72266 h 0.78125 q 0.58594,0.27344 1.66015,0.58594 1.09375,0.3125 2.96875,0.3125 1.52344,0 2.98829,-0.37109 1.46484,-0.39063 2.51953,-1.21094 1.15234,-0.87891 1.89453,-2.1875 0.74219,-1.32813 0.99609,-3.18359 -1.69922,0.97656 -3.16406,1.5039 -1.44531,0.50781 -3.61328,0.50781 -1.64063,0 -3.14453,-0.39062 -1.48438,-0.41016 -2.71485,-1.25 -1.62109,-1.15234 -2.59765,-3.02734 -0.95703,-1.89454 -0.95703,-4.76563 0,-4.66797 3.24218,-7.59766 3.26172,-2.94921 8.53516,-2.94921 2.71484,0 4.80469,0.72265 2.10937,0.70313 3.63281,2.16797 1.77734,1.67969 2.67578,4.27734 0.89844,2.59766 0.89844,6.32813 z m -7.48047,-1.09375 q 0,-2.38281 -0.46875,-3.90625 -0.44922,-1.54297 -1.25,-2.38281 -0.56641,-0.625 -1.30859,-0.89844 -0.74219,-0.27344 -1.5625,-0.27344 -0.76172,0 -1.46485,0.27344 -0.68359,0.25391 -1.32812,0.89844 -0.60547,0.625 -0.9961,1.64062 -0.37109,1.01563 -0.37109,2.42188 0,1.36718 0.41016,2.30468 0.41015,0.91797 1.13281,1.46485 0.68359,0.52734 1.60156,0.74219 0.9375,0.21484 2.03125,0.21484 0.87891,0 1.91406,-0.21484 1.03516,-0.23438 1.60157,-0.46875 0,-0.21485 0.0195,-0.60547 0.0391,-0.41016 0.0391,-1.21094 z"
       style="font-style:normal;font-variant:normal;font-weight:bold;font-stretch:normal;font-size:40px;font-family:sans-serif;-inkscape-font-specification:'sans-serif, Bold';font-variant-ligatures:normal;font-variant-caps:normal;font-variant-numeric:normal;font-feature-settings:normal;text-align:start;writing-mode:lr-tb;text-anchor:start"
       id="path894" />
  </g>
  <g
     aria-label="0"
     style="font-style:normal;font-variant:normal;font-weight:bold;font-stretch:normal;font-size:40px;line-height:1.25;font-family:sans-serif;-inkscape-font-specification:'sans-serif, Bold';font-variant-ligatures:normal;font-variant-caps:normal;font-variant-numeric:normal;font-feature-settings:normal;text-align:start;letter-spacing:0;word-spacing:0;writing-mode:lr-tb;text-anchor:start;fill:#000000"
     id="text50">
    <path
       d="m 276.26801,185.22823 q 0,3.67187 -0.66407,6.58203 -0.66406,2.89062 -2.07031,4.74609 -1.44531,1.89453 -3.71094,2.87109 -2.26562,0.95704 -5.58593,0.95704 -3.26172,0 -5.56641,-0.97657 -2.30469,-0.97656 -3.73047,-2.89062 -1.44531,-1.91406 -2.08984,-4.7461 -0.64453,-2.85156 -0.64453,-6.52343 0,-3.78907 0.66406,-6.58203 0.66406,-2.79297 2.10937,-4.72657 1.44532,-1.91406 3.75,-2.87109 2.30469,-0.95703 5.50782,-0.95703 3.33984,0 5.60546,0.99609 2.26563,0.97656 3.71094,2.92969 1.42578,1.91406 2.07031,4.72656 0.64454,2.79297 0.64454,6.46485 z m -7.5586,0 q 0,-5.27344 -1.03515,-7.5 -1.03516,-2.2461 -3.4375,-2.2461 -2.40235,0 -3.4375,2.2461 -1.03516,2.22656 -1.03516,7.53906 0,5.17578 1.05469,7.46094 1.05468,2.28515 3.41797,2.28515 2.36328,0 3.41796,-2.28515 1.05469,-2.28516 1.05469,-7.5 z"
       style="font-style:normal;font-variant:normal;font-weight:bold;font-stretch:normal;font-size:40px;font-family:sans-serif;-inkscape-font-specification:'sans-serif, Bold';font-variant-ligatures:normal;font-variant-caps:normal;font-variant-numeric:normal;font-feature-settings:normal;text-align:start;writing-mode:lr-tb;text-anchor:start"
       id="path897" />
  </g>
  <path
     d="M59.369 266.874H47.18v-3.535h12.19zm18.203 0H65.384v-3.535h12.188zm18.203 0H83.588v-3.535h12.187zm32.265 0h-12.187v-3.535h12.188zm18.204 0h-12.188v-3.535h12.188zm18.203 0h-12.188v-3.535h12.188zm32.266 0h-12.188v-3.535h12.188zm18.203 0h-12.188v-3.535h12.188zm18.203 0H220.93v-3.535h12.188zm32.265 0h-12.187v-3.535h12.187zm18.204 0H271.4v-3.535h12.188zm18.202 0h-12.187v-3.535h12.188zM59.369 300.889H47.18v-3.535h12.19zm18.203 0H65.384v-3.535h12.188zm18.203 0H83.588v-3.535h12.187zm32.265 0h-12.187v-3.535h12.188zm18.204 0h-12.188v-3.535h12.188zm18.203 0h-12.188v-3.535h12.188zm32.266 0h-12.188v-3.535h12.188zm18.203 0h-12.188v-3.535h12.188zm18.203 0H220.93v-3.535h12.188zm32.265 0h-12.187v-3.535h12.187zm18.204 0H271.4v-3.535h12.188zm18.202 0h-12.187v-3.535h12.188z"
     aria-label="--- --- --- ---"
     font-weight="400"
     font-size="40"
     font-family="sans-serif"
     letter-spacing="0"
     word-spacing="0"
     fill="#fff"
     id="path54" />
  <g
     aria-label="1"
     style="font-style:normal;font-variant:normal;font-weight:bold;font-stretch:normal;font-size:40px;line-height:1.25;font-family:sans-serif;-inkscape-font-specification:'sans-serif, Bold';font-variant-ligatures:normal;font-variant-caps:normal;font-variant-numeric:normal;font-feature-settings:normal;text-align:start;letter-spacing:0px;word-spacing:0px;writing-mode:lr-tb;text-anchor:start;fill:#000000;fill-opacity:1;stroke:none"
     id="text871">
    <path
       d="M 63.642956,75.338425 H 44.228893 V 70.2603 h 6.132813 V 54.889206 h -6.132813 v -4.746094 q 1.40625,0 2.695313,-0.15625 1.289062,-0.175781 2.148437,-0.585937 1.015625,-0.488282 1.523438,-1.269532 0.507812,-0.78125 0.585937,-1.953125 h 6.464844 V 70.2603 h 5.996094 z"
       style=""
       id="path900" />
  </g>
</svg>
